<?xml version="1.0" encoding="UTF-8"?>
<svg width="512" height="512" viewBox="0 0 512 512" fill="none" xmlns="http://www.w3.org/2000/svg">
  <!-- Cow silhouette -->
  <path d="M128 240C128 213.49 149.49 192 176 192H336C362.51 192 384 213.49 384 240V336C384 353.67 369.67 368 352 368H160C142.33 368 128 353.67 128 336V240Z" fill="#8D6E63"/>
  <!-- Head -->
  <path d="M176 192C149.49 192 128 213.49 128 240V272C128 245.49 149.49 224 176 224H336C362.51 224 384 245.49 384 272V240C384 213.49 362.51 192 336 192H176Z" fill="#A1887F"/>
  <!-- Ears -->
  <path d="M144 224C144 210.75 154.75 200 168 200H184C197.25 200 208 210.75 208 224V240C208 253.25 197.25 264 184 264H168C154.75 264 144 253.25 144 240V224Z" fill="#8D6E63"/>
  <path d="M304 224C304 210.75 314.75 200 328 200H344C357.25 200 368 210.75 368 224V240C368 253.25 357.25 264 344 264H328C314.75 264 304 253.25 304 240V224Z" fill="#8D6E63"/>
  <!-- Eyes -->
  <circle cx="192" cy="256" r="16" fill="white"/>
  <circle cx="320" cy="256" r="16" fill="white"/>
  <circle cx="192" cy="256" r="8" fill="black"/>
  <circle cx="320" cy="256" r="8" fill="black"/>
  <!-- Nose -->
  <path d="M240 288H272C281.94 288 290 296.06 290 306V322C290 331.94 281.94 340 272 340H240C230.06 340 222 331.94 222 322V306C222 296.06 230.06 288 240 288Z" fill="#6D4C41"/>
  <circle cx="240" cy="314" r="5" fill="black"/>
  <circle cx="272" cy="314" r="5" fill="black"/>
  <!-- Spots -->
  <circle cx="208" cy="320" r="24" fill="#5D4037"/>
  <circle cx="304" cy="320" r="24" fill="#5D4037"/>
  <circle cx="256" cy="224" r="32" fill="#5D4037"/>
  <!-- Legs -->
  <rect x="160" y="368" width="32" height="64" rx="16" fill="#8D6E63"/>
  <rect x="320" y="368" width="32" height="64" rx="16" fill="#8D6E63"/>
  <rect x="208" y="368" width="32" height="64" rx="16" fill="#8D6E63"/>
  <rect x="272" y="368" width="32" height="64" rx="16" fill="#8D6E63"/>
</svg>