<?xml version="1.0" encoding="UTF-8"?>
<svg width="512" height="512" viewBox="0 0 512 512" fill="none" xmlns="http://www.w3.org/2000/svg">
  <path d="M256 96C256 78.4 267.2 64 280 64C292.8 64 304 78.4 304 96C304 113.6 280 128 280 128C280 128 256 113.6 256 96Z" fill="#4CAF50"/>
  <path d="M201.6 116.8C201.6 104 209.6 94.4 218.4 94.4C227.2 94.4 235.2 104 235.2 116.8C235.2 129.6 218.4 139.2 218.4 139.2C218.4 139.2 201.6 129.6 201.6 116.8Z" fill="#4CAF50"/>
  <path d="M310.4 116.8C310.4 104 318.4 94.4 327.2 94.4C336 94.4 344 104 344 116.8C344 129.6 327.2 139.2 327.2 139.2C327.2 139.2 310.4 129.6 310.4 116.8Z" fill="#4CAF50"/>
  <path d="M256 448C256 448 179.2 358.4 179.2 256C179.2 204.8 211.2 160 256 160C300.8 160 332.8 198.4 332.8 256C332.8 358.4 256 448 256 448Z" fill="#4CAF50"/>
  <path d="M288 320C288 320 300.8 300.8 300.8 256C300.8 217.6 281.6 192 256 192C230.4 192 211.2 217.6 211.2 256C211.2 300.8 224 320 224 320" stroke="#33691E" stroke-width="8"/>
  <path d="M224 224C224 224 211.2 244.8 211.2 256C211.2 267.2 216 275.2 224 281.6" stroke="#33691E" stroke-width="8"/>
  <path d="M288 224C288 224 300.8 244.8 300.8 256C300.8 267.2 296 275.2 288 281.6" stroke="#33691E" stroke-width="8"/>
  <path d="M256 160V448" stroke="#33691E" stroke-width="8"/>
</svg>